<svg width="960" height="540" viewBox="0 0 960 540" fill="none" xmlns="http://www.w3.org/2000/svg" role="img" aria-label="Early gestation biological illustration">
  <defs>
    <linearGradient id="bgEarly" x1="0" y1="0" x2="960" y2="540" gradientUnits="userSpaceOnUse">
      <stop offset="0" stop-color="#f0fdf4"/>
      <stop offset="1" stop-color="#ecfeff"/>
    </linearGradient>
    <linearGradient id="shellEarly" x1="182" y1="120" x2="780" y2="430" gradientUnits="userSpaceOnUse">
      <stop offset="0" stop-color="#dcfce7"/>
      <stop offset="1" stop-color="#bbf7d0"/>
    </linearGradient>
    <filter id="softShadowEarly" x="0" y="0" width="960" height="540" filterUnits="userSpaceOnUse" color-interpolation-filters="sRGB">
      <feDropShadow dx="0" dy="8" stdDeviation="16" flood-color="#14532d" flood-opacity="0.14"/>
    </filter>
  </defs>

  <rect width="960" height="540" fill="url(#bgEarly)"/>

  <g opacity="0.15" stroke="#15803d" stroke-width="1">
    <path d="M60 110H900"/>
    <path d="M60 200H900"/>
    <path d="M60 290H900"/>
    <path d="M60 380H900"/>
    <path d="M140 70V470"/>
    <path d="M320 70V470"/>
    <path d="M500 70V470"/>
    <path d="M680 70V470"/>
    <path d="M860 70V470"/>
  </g>

  <g filter="url(#softShadowEarly)">
    <rect x="70" y="58" width="820" height="424" rx="24" fill="#ffffff"/>
  </g>

  <g>
    <path d="M214 274C214 178 288 114 382 114H585C679 114 753 178 753 274C753 370 679 434 585 434H382C288 434 214 370 214 274Z" fill="url(#shellEarly)" stroke="#16a34a" stroke-width="3"/>
    <path d="M246 274C246 196 305 146 382 146H585C662 146 721 196 721 274C721 352 662 402 585 402H382C305 402 246 352 246 274Z" fill="#f7fee7" stroke="#4ade80" stroke-width="2"/>

    <circle cx="483" cy="274" r="38" fill="#86efac" stroke="#16a34a" stroke-width="3"/>
    <circle cx="483" cy="274" r="14" fill="#15803d"/>
    <circle cx="483" cy="274" r="55" stroke="#4ade80" stroke-width="2" stroke-dasharray="8 8" opacity="0.75"/>

    <path d="M316 236L408 260" stroke="#22c55e" stroke-width="3" stroke-linecap="round"/>
    <path d="M316 312L408 288" stroke="#22c55e" stroke-width="3" stroke-linecap="round"/>
    <path d="M650 236L558 260" stroke="#22c55e" stroke-width="3" stroke-linecap="round"/>
    <path d="M650 312L558 288" stroke="#22c55e" stroke-width="3" stroke-linecap="round"/>
  </g>

  <g>
    <rect x="108" y="88" width="210" height="64" rx="12" fill="#14532d"/>
    <text x="124" y="126" fill="#f0fdf4" font-family="Segoe UI, Arial, sans-serif" font-size="24" font-weight="700">DAYS 0-50</text>
    <text x="626" y="126" fill="#166534" font-family="Segoe UI, Arial, sans-serif" font-size="20" font-weight="600">Early embryonic stage</text>
  </g>

  <g>
    <line x1="180" y1="462" x2="780" y2="462" stroke="#86efac" stroke-width="6" stroke-linecap="round"/>
    <circle cx="250" cy="462" r="14" fill="#16a34a"/>
    <circle cx="480" cy="462" r="10" fill="#bbf7d0" stroke="#16a34a" stroke-width="3"/>
    <circle cx="710" cy="462" r="10" fill="#bbf7d0" stroke="#16a34a" stroke-width="3"/>
  </g>
</svg>
