<svg width="960" height="540" viewBox="0 0 960 540" fill="none" xmlns="http://www.w3.org/2000/svg" role="img" aria-label="Mid gestation biological illustration">
  <defs>
    <linearGradient id="bgMid" x1="0" y1="0" x2="960" y2="540" gradientUnits="userSpaceOnUse">
      <stop offset="0" stop-color="#fff7ed"/>
      <stop offset="1" stop-color="#fffbeb"/>
    </linearGradient>
    <linearGradient id="shellMid" x1="182" y1="120" x2="780" y2="430" gradientUnits="userSpaceOnUse">
      <stop offset="0" stop-color="#fde68a"/>
      <stop offset="1" stop-color="#fed7aa"/>
    </linearGradient>
    <filter id="softShadowMid" x="0" y="0" width="960" height="540" filterUnits="userSpaceOnUse" color-interpolation-filters="sRGB">
      <feDropShadow dx="0" dy="8" stdDeviation="16" flood-color="#7c2d12" flood-opacity="0.14"/>
    </filter>
  </defs>

  <rect width="960" height="540" fill="url(#bgMid)"/>

  <g opacity="0.15" stroke="#b45309" stroke-width="1">
    <path d="M60 110H900"/>
    <path d="M60 200H900"/>
    <path d="M60 290H900"/>
    <path d="M60 380H900"/>
    <path d="M140 70V470"/>
    <path d="M320 70V470"/>
    <path d="M500 70V470"/>
    <path d="M680 70V470"/>
    <path d="M860 70V470"/>
  </g>

  <g filter="url(#softShadowMid)">
    <rect x="70" y="58" width="820" height="424" rx="24" fill="#ffffff"/>
  </g>

  <g>
    <path d="M214 274C214 178 288 114 382 114H585C679 114 753 178 753 274C753 370 679 434 585 434H382C288 434 214 370 214 274Z" fill="url(#shellMid)" stroke="#d97706" stroke-width="3"/>
    <path d="M246 274C246 196 305 146 382 146H585C662 146 721 196 721 274C721 352 662 402 585 402H382C305 402 246 352 246 274Z" fill="#fff7ed" stroke="#f59e0b" stroke-width="2"/>

    <path d="M426 308C414 278 420 250 438 232C463 206 505 205 536 225C563 243 575 278 560 310C546 341 509 357 473 350C451 346 436 331 426 308Z" fill="#fdba74" stroke="#c2410c" stroke-width="3"/>
    <circle cx="531" cy="241" r="12" fill="#ea580c"/>
    <path d="M468 325C485 336 515 334 533 322" stroke="#9a3412" stroke-width="4" stroke-linecap="round"/>
    <path d="M445 281C436 274 431 262 430 249" stroke="#c2410c" stroke-width="4" stroke-linecap="round"/>
    <path d="M550 289C560 279 565 266 566 252" stroke="#c2410c" stroke-width="4" stroke-linecap="round"/>

    <path d="M304 332H660" stroke="#f59e0b" stroke-width="3" stroke-dasharray="8 8"/>
  </g>

  <g>
    <rect x="108" y="88" width="232" height="64" rx="12" fill="#9a3412"/>
    <text x="124" y="126" fill="#fff7ed" font-family="Segoe UI, Arial, sans-serif" font-size="24" font-weight="700">DAYS 50-100</text>
    <text x="612" y="126" fill="#9a3412" font-family="Segoe UI, Arial, sans-serif" font-size="20" font-weight="600">Mid fetal development</text>
  </g>

  <g>
    <line x1="180" y1="462" x2="780" y2="462" stroke="#fcd34d" stroke-width="6" stroke-linecap="round"/>
    <circle cx="250" cy="462" r="10" fill="#fde68a" stroke="#d97706" stroke-width="3"/>
    <circle cx="480" cy="462" r="14" fill="#d97706"/>
    <circle cx="710" cy="462" r="10" fill="#fde68a" stroke="#d97706" stroke-width="3"/>
  </g>
</svg>
